<?xml version="1.0" encoding="UTF-8" standalone="no"?>
<!-- Created with Inkscape (http://www.inkscape.org/) -->

<svg
   xmlns:v="http://schemas.microsoft.com/visio/2003/SVGExtensions/"
   xmlns:dc="http://purl.org/dc/elements/1.1/"
   xmlns:cc="http://creativecommons.org/ns#"
   xmlns:rdf="http://www.w3.org/1999/02/22-rdf-syntax-ns#"
   xmlns:svg="http://www.w3.org/2000/svg"
   xmlns="http://www.w3.org/2000/svg"
   xmlns:sodipodi="http://sodipodi.sourceforge.net/DTD/sodipodi-0.dtd"
   xmlns:inkscape="http://www.inkscape.org/namespaces/inkscape"
   width="297mm"
   height="210mm"
   viewBox="0 0 1052.3622 744.09448"
   id="svg3504"
   version="1.1"
   inkscape:version="0.91 r13725"
   sodipodi:docname="Zeichnung.svg">
  <defs
     id="defs3506" />
  <sodipodi:namedview
     id="base"
     pagecolor="#ffffff"
     bordercolor="#666666"
     borderopacity="1.0"
     inkscape:pageopacity="0.0"
     inkscape:pageshadow="2"
     inkscape:zoom="1.4"
     inkscape:cx="166.88714"
     inkscape:cy="489.54511"
     inkscape:document-units="px"
     inkscape:current-layer="layer1"
     showgrid="false"
     inkscape:window-width="1920"
     inkscape:window-height="1017"
     inkscape:window-x="-8"
     inkscape:window-y="-8"
     inkscape:window-maximized="1"
     inkscape:snap-text-baseline="true" />
  <metadata
     id="metadata3509">
    <rdf:RDF>
      <cc:Work
         rdf:about="">
        <dc:format>image/svg+xml</dc:format>
        <dc:type
           rdf:resource="http://purl.org/dc/dcmitype/StillImage" />
        <dc:title />
      </cc:Work>
    </rdf:RDF>
  </metadata>
  <g
     inkscape:label="Ebene 1"
     inkscape:groupmode="layer"
     id="layer1"
     transform="translate(0,-308.26772)">
    <path
       inkscape:connector-curvature="0"
       d="m 58.353463,469.18528 13.325,0 54.912497,0 a 5.625,5.625 0 0 0 5.625,-5.625 l 0,-54.85 a 5.625,5.625 0 0 0 -5.625,-5.625 l -63.637497,0 a 5.625,5.625 0 0 0 -5.5125,4.525 l -11.1,55.0375 a 5.4537375,5.4537375 0 0 0 5.35,6.5375 l 6.6625,0 z"
       class="st1"
       id="path3347"
       style="fill:none;stroke:#000000;stroke-opacity:1" />
    <g
       id="shape5-3"
       v:mID="5"
       v:groupContext="shape"
       transform="matrix(1.25,0,0,1.25,50.252213,-225.04972)"
       style="fill:none;stroke:#000000;stroke-opacity:1">
      <title
         id="title3350">Sheet.5</title>
      <path
         inkscape:connector-curvature="0"
         d="m 61.63,559.13 -30.81,0 -22.99,0 a 4.5,4.5 -180 0 0 -3.89,6.76 l 25.57,43.88 A 4.5,4.5 -180 0 0 33.4,612 l 27.35,0 a 4.5,4.5 -180 0 0 4.5,-4.5 l 0,-46.57 a 1.80966,1.80966 -180 0 0 -1.81,-1.81 l -1.81,0 z"
         class="st1"
         id="path3352"
         style="fill:none;stroke:#000000;stroke-opacity:1" />
    </g>
    <g
       id="shape2-5"
       v:mID="2"
       v:groupContext="shape"
       transform="matrix(1.25,0,0,1.25,135.98596,-295.31222)"
       style="fill:none;stroke:#000000;stroke-opacity:1">
      <title
         id="title3355">Square</title>
      <v:userDefs>
        <v:ud
           v:nameU="visVersion"
           v:val="VT0(14):26" />
      </v:userDefs>
      <rect
         x="0"
         y="558.72302"
         width="53.2766"
         height="53.2766"
         rx="4.5"
         ry="4.5"
         class="st1"
         id="rect3357"
         style="fill:none;stroke:#000000;stroke-opacity:1" />
    </g>
    <g
       id="shape3-7"
       v:mID="3"
       v:groupContext="shape"
       transform="matrix(1.25,0,0,1.25,135.98596,-224.54847)"
       style="fill:none;stroke:#000000;stroke-opacity:1">
      <title
         id="title3360">Square.3</title>
      <v:userDefs>
        <v:ud
           v:nameU="visVersion"
           v:val="VT0(14):26" />
      </v:userDefs>
      <rect
         x="0"
         y="558.72302"
         width="53.2766"
         height="53.2766"
         rx="4.5"
         ry="4.5"
         class="st1"
         id="rect3362"
         style="fill:none;stroke:#000000;stroke-opacity:1" />
    </g>
    <g
       id="shape6-9"
       v:mID="6"
       v:groupContext="shape"
       transform="matrix(1.25,0,0,1.25,207.23971,-295.31222)"
       style="fill:none;stroke:#000000;stroke-opacity:1">
      <title
         id="title3365">Square.6</title>
      <v:userDefs>
        <v:ud
           v:nameU="visVersion"
           v:val="VT0(14):26" />
      </v:userDefs>
      <rect
         x="0"
         y="558.72302"
         width="53.2766"
         height="53.2766"
         rx="4.5"
         ry="4.5"
         class="st1"
         id="rect3367"
         style="fill:none;stroke:#000000;stroke-opacity:1" />
    </g>
    <g
       id="shape7-11"
       v:mID="7"
       v:groupContext="shape"
       transform="matrix(1.25,0,0,1.25,278.49221,-295.31222)"
       style="fill:none;stroke:#000000;stroke-opacity:1">
      <title
         id="title3370">Square.7</title>
      <v:userDefs>
        <v:ud
           v:nameU="visVersion"
           v:val="VT0(14):26" />
      </v:userDefs>
      <rect
         x="0"
         y="558.72302"
         width="53.2766"
         height="53.2766"
         rx="4.5"
         ry="4.5"
         class="st1"
         id="rect3372"
         style="fill:none;stroke:#000000;stroke-opacity:1" />
    </g>
    <g
       id="shape8-13"
       v:mID="8"
       v:groupContext="shape"
       transform="matrix(1.25,0,0,1.25,349.74596,-295.31222)"
       style="fill:none;stroke:#000000;stroke-opacity:1">
      <title
         id="title3375">Square.8</title>
      <v:userDefs>
        <v:ud
           v:nameU="visVersion"
           v:val="VT0(14):26" />
      </v:userDefs>
      <rect
         x="0"
         y="558.72302"
         width="53.2766"
         height="53.2766"
         rx="4.5"
         ry="4.5"
         class="st1"
         id="rect3377"
         style="fill:none;stroke:#000000;stroke-opacity:1" />
    </g>
    <g
       id="shape9-15"
       v:mID="9"
       v:groupContext="shape"
       transform="matrix(1.25,0,0,1.25,420.99971,-295.31222)"
       style="fill:none;stroke:#000000;stroke-opacity:1">
      <title
         id="title3380">Square.9</title>
      <v:userDefs>
        <v:ud
           v:nameU="visVersion"
           v:val="VT0(14):26" />
      </v:userDefs>
      <rect
         x="0"
         y="558.72302"
         width="53.2766"
         height="53.2766"
         rx="4.5"
         ry="4.5"
         class="st1"
         id="rect3382"
         style="fill:none;stroke:#000000;stroke-opacity:1" />
    </g>
    <g
       id="shape10-17"
       v:mID="10"
       v:groupContext="shape"
       transform="matrix(1.25,0,0,1.25,349.74596,-154.68722)"
       style="fill:none;stroke:#000000;stroke-opacity:1">
      <title
         id="title3385">Square.10</title>
      <v:userDefs>
        <v:ud
           v:nameU="visVersion"
           v:val="VT0(14):26" />
      </v:userDefs>
      <rect
         x="0"
         y="558.72302"
         width="53.2766"
         height="53.2766"
         rx="4.5"
         ry="4.5"
         class="st1"
         id="rect3387"
         style="fill:none;stroke:#000000;stroke-opacity:1" />
    </g>
    <g
       id="shape11-19"
       v:mID="11"
       v:groupContext="shape"
       transform="matrix(1.25,0,0,1.25,278.49221,-82.968472)"
       style="fill:none;stroke:#000000;stroke-opacity:1">
      <title
         id="title3390">Square.11</title>
      <v:userDefs>
        <v:ud
           v:nameU="visVersion"
           v:val="VT0(14):26" />
      </v:userDefs>
      <rect
         x="0"
         y="558.72302"
         width="53.2766"
         height="53.2766"
         rx="4.5"
         ry="4.5"
         class="st1"
         id="rect3392"
         style="fill:none;stroke:#000000;stroke-opacity:1" />
    </g>
    <g
       id="shape12-21"
       v:mID="12"
       v:groupContext="shape"
       transform="matrix(1.25,0,0,1.25,207.23971,-154.68722)"
       style="fill:none;stroke:#000000;stroke-opacity:1">
      <title
         id="title3395">Square.12</title>
      <v:userDefs>
        <v:ud
           v:nameU="visVersion"
           v:val="VT0(14):26" />
      </v:userDefs>
      <rect
         x="0"
         y="558.72302"
         width="53.2766"
         height="53.2766"
         rx="4.5"
         ry="4.5"
         class="st1"
         id="rect3397"
         style="fill:none;stroke:#000000;stroke-opacity:1" />
    </g>
    <g
       id="shape13-23"
       v:mID="13"
       v:groupContext="shape"
       transform="matrix(1.25,0,0,1.25,278.49221,-154.68722)"
       style="fill:none;stroke:#000000;stroke-opacity:1">
      <title
         id="title3400">Square.13</title>
      <v:userDefs>
        <v:ud
           v:nameU="visVersion"
           v:val="VT0(14):26" />
      </v:userDefs>
      <rect
         x="0"
         y="558.72302"
         width="53.2766"
         height="53.2766"
         rx="4.5"
         ry="4.5"
         class="st1"
         id="rect3402"
         style="fill:none;stroke:#000000;stroke-opacity:1" />
    </g>
    <g
       id="shape14-25"
       v:mID="14"
       v:groupContext="shape"
       transform="matrix(1.25,0,0,1.25,207.23971,-224.54847)"
       style="fill:none;stroke:#000000;stroke-opacity:1">
      <title
         id="title3405">Square.14</title>
      <v:userDefs>
        <v:ud
           v:nameU="visVersion"
           v:val="VT0(14):26" />
      </v:userDefs>
      <rect
         x="0"
         y="558.72302"
         width="53.2766"
         height="53.2766"
         rx="4.5"
         ry="4.5"
         class="st1"
         id="rect3407"
         style="fill:none;stroke:#000000;stroke-opacity:1" />
    </g>
    <g
       id="shape15-27"
       v:mID="15"
       v:groupContext="shape"
       transform="matrix(1.25,0,0,1.25,278.49221,-224.54847)"
       style="fill:none;stroke:#000000;stroke-opacity:1">
      <title
         id="title3410">Square.15</title>
      <v:userDefs>
        <v:ud
           v:nameU="visVersion"
           v:val="VT0(14):26" />
      </v:userDefs>
      <rect
         x="0"
         y="558.72302"
         width="53.2766"
         height="53.2766"
         rx="4.5"
         ry="4.5"
         class="st1"
         id="rect3412"
         style="fill:none;stroke:#000000;stroke-opacity:1" />
    </g>
    <g
       id="shape16-29"
       v:mID="16"
       v:groupContext="shape"
       transform="matrix(1.25,0,0,1.25,349.74596,-224.54847)"
       style="fill:none;stroke:#000000;stroke-opacity:1">
      <title
         id="title3415">Square.16</title>
      <v:userDefs>
        <v:ud
           v:nameU="visVersion"
           v:val="VT0(14):26" />
      </v:userDefs>
      <rect
         x="0"
         y="558.72302"
         width="53.2766"
         height="53.2766"
         rx="4.5"
         ry="4.5"
         class="st1"
         id="rect3417"
         style="fill:none;stroke:#000000;stroke-opacity:1" />
    </g>
    <g
       id="shape17-31"
       v:mID="17"
       v:groupContext="shape"
       transform="matrix(1.25,0,0,1.25,420.99971,-224.54847)"
       style="fill:none;stroke:#000000;stroke-opacity:1">
      <title
         id="title3420">Square.17</title>
      <v:userDefs>
        <v:ud
           v:nameU="visVersion"
           v:val="VT0(14):26" />
      </v:userDefs>
      <rect
         x="0"
         y="558.72302"
         width="53.2766"
         height="53.2766"
         rx="4.5"
         ry="4.5"
         class="st1"
         id="rect3422"
         style="fill:none;stroke:#000000;stroke-opacity:1" />
    </g>
    <g
       id="shape20-33"
       v:mID="20"
       v:groupContext="shape"
       transform="matrix(1.25,0,0,1.25,89.627213,-153.78347)"
       style="fill:none;stroke:#000000;stroke-opacity:1">
      <title
         id="title3425">Sheet.20</title>
      <path
         inkscape:connector-curvature="0"
         d="m 37.57,612 49.05,0 a 4.5,4.5 -180 0 0 4.5,-4.5 l 0,-45 a 4.5,4.5 -180 0 0 -4.5,-4.5 l -51.49,0 -26.83,0 a 4.5,4.5 -180 0 0 -3.78,6.95 l 29.28,45 a 4.5,4.5 -180 0 0 3.77,2.05 z"
         class="st1"
         id="path3427"
         style="fill:none;stroke:#000000;stroke-opacity:1" />
    </g>
    <g
       id="shape18-35"
       v:mID="18"
       v:groupContext="shape"
       transform="matrix(1.25,0,0,1.25,133.22096,-82.064722)"
       style="fill:none;stroke:#000000;stroke-opacity:1">
      <title
         id="title3430">Sheet.18</title>
      <path
         inkscape:connector-curvature="0"
         d="m 45.53,612 62.47,0 a 4.5,4.5 -180 0 0 4.5,-4.5 l 0,-45 A 4.5,4.5 -180 0 0 108,558 l -64.63,0 -33.98,0 a 4.5,4.5 -180 0 0 -3.51,7.32 l 36.14,45 a 4.5,4.5 -180 0 0 3.51,1.68 z"
         class="st1"
         id="path3432"
         style="fill:none;stroke:#000000;stroke-opacity:1" />
    </g>
    <g
       id="shape19-37"
       v:mID="19"
       v:groupContext="shape"
       transform="matrix(-1.25,0,0,1.25,490.40846,-82.517222)"
       style="fill:none;stroke:#000000;stroke-opacity:1">
      <title
         id="title3435">Sheet.19</title>
      <path
         inkscape:connector-curvature="0"
         d="m 45.53,612 62.47,0 a 4.5,4.5 -180 0 0 4.5,-4.5 l 0,-45 A 4.5,4.5 -180 0 0 108,558 l -64.63,0 -33.98,0 a 4.5,4.5 -180 0 0 -3.51,7.32 l 36.14,45 a 4.5,4.5 -180 0 0 3.51,1.68 z"
         class="st1"
         id="path3437"
         style="fill:none;stroke:#000000;stroke-opacity:1" />
    </g>
    <g
       id="shape21-39"
       v:mID="21"
       v:groupContext="shape"
       transform="matrix(-1.25,0,0,1.25,535.40846,-153.78347)"
       style="fill:none;stroke:#000000;stroke-opacity:1">
      <title
         id="title3440">Sheet.21</title>
      <path
         inkscape:connector-curvature="0"
         d="m 37.57,612 49.05,0 a 4.5,4.5 -180 0 0 4.5,-4.5 l 0,-45 a 4.5,4.5 -180 0 0 -4.5,-4.5 l -51.49,0 -26.83,0 a 4.5,4.5 -180 0 0 -3.78,6.95 l 29.28,45 a 4.5,4.5 -180 0 0 3.77,2.05 z"
         class="st1"
         id="path3442"
         style="fill:none;stroke:#000000;stroke-opacity:1" />
    </g>
    <g
       id="shape22-41"
       v:mID="22"
       v:groupContext="shape"
       transform="matrix(-1.25,0,0,1.25,574.78346,-225.04972)"
       style="fill:none;stroke:#000000;stroke-opacity:1">
      <title
         id="title3445">Sheet.22</title>
      <path
         inkscape:connector-curvature="0"
         d="m 61.63,559.13 -30.81,0 -22.99,0 a 4.5,4.5 -180 0 0 -3.89,6.76 l 25.57,43.88 A 4.5,4.5 -180 0 0 33.4,612 l 27.35,0 a 4.5,4.5 -180 0 0 4.5,-4.5 l 0,-46.57 a 1.80966,1.80966 -180 0 0 -1.81,-1.81 l -1.81,0 z"
         class="st1"
         id="path3447"
         style="fill:none;stroke:#000000;stroke-opacity:1" />
    </g>
    <g
       id="shape23-43"
       v:mID="23"
       v:groupContext="shape"
       transform="matrix(-1.25,0,0,1.25,580.40846,-295.81472)"
       style="fill:none;stroke:#000000;stroke-opacity:1">
      <title
         id="title3450">Sheet.23</title>
      <path
         inkscape:connector-curvature="0"
         d="m 10.66,612 10.66,0 43.93,0 a 4.5,4.5 -180 0 0 4.5,-4.5 l 0,-43.88 a 4.5,4.5 -180 0 0 -4.5,-4.5 l -50.91,0 a 4.5,4.5 -180 0 0 -4.41,3.62 L 1.05,606.77 A 4.36299,4.36299 -180 0 0 5.33,612 l 5.33,0 z"
         class="st1"
         id="path3452"
         style="fill:none;stroke:#000000;stroke-opacity:1" />
    </g>
    <g
       id="shape24-45"
       v:mID="24"
       v:groupContext="shape"
       transform="matrix(1.25,0,0,1.25,138.84596,-375.97097)"
       style="fill:none;stroke:#000000;stroke-opacity:1">
      <title
         id="title3455">Sheet.24</title>
      <rect
         x="0"
         y="591.75"
         width="69.008003"
         height="20.25"
         class="st1"
         id="rect3457"
         style="fill:none;stroke:#000000;stroke-opacity:1" />
    </g>
    <g
       id="shape25-47"
       v:mID="25"
       v:groupContext="shape"
       transform="matrix(1.25,0,0,1.25,228.84596,-375.97097)"
       style="fill:none;stroke:#000000;stroke-opacity:1">
      <title
         id="title3460">Sheet.25</title>
      <rect
         x="0"
         y="591.75"
         width="69.008003"
         height="20.25"
         class="st1"
         id="rect3462"
         style="fill:none;stroke:#000000;stroke-opacity:1" />
    </g>
    <g
       id="shape26-49"
       v:mID="26"
       v:groupContext="shape"
       transform="matrix(1.25,0,0,1.25,318.84596,-375.97097)"
       style="fill:none;stroke:#000000;stroke-opacity:1">
      <title
         id="title3465">Sheet.26</title>
      <rect
         x="0"
         y="591.75"
         width="69.008003"
         height="20.25"
         class="st1"
         id="rect3467"
         style="fill:none;stroke:#000000;stroke-opacity:1" />
    </g>
    <g
       id="shape29-51"
       v:mID="29"
       v:groupContext="shape"
       transform="matrix(1.25,0,0,1.25,515.72096,-48.314722)"
       style="fill:none;stroke:#000000;stroke-opacity:1">
      <title
         id="title3470">Sheet.29</title>
      <path
         inkscape:connector-curvature="0"
         d="m 26.59,607 15.14,-18.51 a 4.5,4.5 -180 0 0 1.02,-2.85 l 0,-33.63 a 4.5,4.5 -180 0 0 0,-0.02 L 42.44,499.7 a 4.5,4.5 -180 0 0 -1.14,-2.97 l -3.68,-4.13 a 4.5,4.5 -180 0 0 -7.1,0.5 L 0.76,537.74 A 4.5,4.5 -180 0 0 0,540.24 l 0,32.28 a 4.5,4.5 -180 0 0 0.62,2.29 l 18.61,31.63 a 4.5,4.5 -180 0 0 7.36,0.56 z"
         class="st1"
         id="path3472"
         style="fill:none;stroke:#000000;stroke-opacity:1" />
    </g>
    <g
       id="shape27-53"
       v:mID="27"
       v:groupContext="shape"
       transform="matrix(1.227034,0.23851124,-0.23851124,1.227034,696.84224,12.710278)"
       style="fill:none;stroke:#000000;stroke-opacity:1">
      <title
         id="title3475">Sheet.27</title>
      <path
         inkscape:connector-curvature="0"
         d="m 27.18,611.05 62.16,-48.3 a 4.5,4.5 -180 0 0 1.1,-1.24 l 7.83,-13.05 a 4.5,4.5 -180 0 0 -4.74,-6.73 l -35.02,7 -43.04,8.61 a 4.5,4.5 -180 0 0 -2.99,2.11 L 0.64,579.3 a 4.5,4.5 -180 0 0 0.29,5.05 l 19.92,25.89 a 4.5,4.5 -180 0 0 6.33,0.81 z"
         class="st1"
         id="path3477"
         style="fill:none;stroke:#000000;stroke-opacity:1" />
    </g>
    <g
       id="shape28-55"
       v:mID="28"
       v:groupContext="shape"
       transform="matrix(1.25,0,0,1.25,628.62221,-129.87722)"
       style="fill:none;stroke:#000000;stroke-opacity:1">
      <title
         id="title3480">Center drag circle</title>
      <v:userDefs>
        <v:ud
           v:nameU="visVersion"
           v:val="VT0(14):26" />
      </v:userDefs>
      <path
         inkscape:connector-curvature="0"
         d="m -38.25,612 a 38.25,38.25 0 0 1 76.5,0 38.25,38.25 0 1 1 -76.5,0 z"
         class="st1"
         id="path3482"
         style="fill:none;stroke:#000000;stroke-opacity:1" />
    </g>
    <g
       id="shape30-57"
       v:mID="30"
       v:groupContext="shape"
       transform="matrix(1.25,0,0,1.25,628.62221,-129.87722)"
       style="fill:none;stroke:#000000;stroke-opacity:1">
      <title
         id="title3485">Center drag circle.30</title>
      <v:userDefs>
        <v:ud
           v:nameU="visVersion"
           v:val="VT0(14):26" />
      </v:userDefs>
      <path
         inkscape:connector-curvature="0"
         d="m -14.49,612 a 14.49,14.49 0 0 1 28.98,0 14.49,14.49 0 1 1 -28.98,0 z"
         class="st1"
         id="path3487"
         style="fill:none;stroke:#000000;stroke-opacity:1" />
    </g>
    <g
       id="shape1-59"
       v:mID="1"
       v:groupContext="shape"
       transform="matrix(1.25,0,0,1.25,408.76846,-375.97097)"
       style="fill:none;stroke:#000000;stroke-opacity:1">
      <title
         id="title3490">Sheet.1</title>
      <rect
         x="0"
         y="591.75"
         width="69.008003"
         height="20.25"
         class="st1"
         id="rect3492"
         style="fill:none;stroke:#000000;stroke-opacity:1" />
    </g>
    <text
       sodipodi:linespacing="125%"
       id="text3425"
       y="421.45145"
       x="101.68132"
       style="font-style:normal;font-weight:normal;font-size:40px;line-height:125%;font-family:Sans;letter-spacing:0px;word-spacing:0px;fill:#000000;fill-opacity:1;stroke:none;stroke-width:1px;stroke-linecap:butt;stroke-linejoin:miter;stroke-opacity:1"
       xml:space="preserve"><tspan
         style="font-size:11.25px"
         y="421.45145"
         x="101.68132"
         id="G1A"
         sodipodi:role="line">G1A</tspan></text>
    <text
       xml:space="preserve"
       style="font-style:normal;font-weight:normal;font-size:40px;line-height:125%;font-family:Sans;letter-spacing:0px;word-spacing:0px;fill:#000000;fill-opacity:1;stroke:none;stroke-width:1px;stroke-linecap:butt;stroke-linejoin:miter;stroke-opacity:1"
       x="101.68132"
       y="440.64435"
       id="text3429"
       sodipodi:linespacing="125%"><tspan
         sodipodi:role="line"
         id="G1B"
         x="101.68132"
         y="440.64435"
         style="font-size:11.25px">G1B</tspan></text>
    <text
       sodipodi:linespacing="125%"
       id="text3433"
       y="460.34232"
       x="101.68132"
       style="font-style:normal;font-weight:normal;font-size:40px;line-height:125%;font-family:Sans;letter-spacing:0px;word-spacing:0px;fill:#000000;fill-opacity:1;stroke:none;stroke-width:1px;stroke-linecap:butt;stroke-linejoin:miter;stroke-opacity:1"
       xml:space="preserve"><tspan
         style="font-size:11.25px"
         y="460.34232"
         x="101.68132"
         id="G1C"
         sodipodi:role="line">G1C</tspan></text>
    <text
       xml:space="preserve"
       style="font-style:normal;font-weight:normal;font-size:40px;line-height:125%;font-family:Sans;letter-spacing:0px;word-spacing:0px;fill:#000000;fill-opacity:1;stroke:none;stroke-width:1px;stroke-linecap:butt;stroke-linejoin:miter;stroke-opacity:1"
       x="175.16992"
       y="421.45145"
       id="text3437"
       sodipodi:linespacing="125%"><tspan
         sodipodi:role="line"
         id="G2A"
         x="175.16992"
         y="421.45145"
         style="font-size:11.25px">G2A</tspan></text>
    <text
       sodipodi:linespacing="125%"
       id="text3441"
       y="440.64435"
       x="175.16992"
       style="font-style:normal;font-weight:normal;font-size:40px;line-height:125%;font-family:Sans;letter-spacing:0px;word-spacing:0px;fill:#000000;fill-opacity:1;stroke:none;stroke-width:1px;stroke-linecap:butt;stroke-linejoin:miter;stroke-opacity:1"
       xml:space="preserve"><tspan
         style="font-size:11.25px"
         y="440.64435"
         x="175.16992"
         id="G2B"
         sodipodi:role="line">G2B</tspan></text>
    <text
       xml:space="preserve"
       style="font-style:normal;font-weight:normal;font-size:40px;line-height:125%;font-family:Sans;letter-spacing:0px;word-spacing:0px;fill:#000000;fill-opacity:1;stroke:none;stroke-width:1px;stroke-linecap:butt;stroke-linejoin:miter;stroke-opacity:1"
       x="175.16992"
       y="460.34232"
       id="text3445"
       sodipodi:linespacing="125%"><tspan
         sodipodi:role="line"
         id="G2C"
         x="175.16992"
         y="460.34232"
         style="font-size:11.25px">G2C</tspan></text>
    <text
       sodipodi:linespacing="125%"
       id="text3435"
       y="421.45145"
       x="245.8842"
       style="font-style:normal;font-weight:normal;font-size:40px;line-height:125%;font-family:Sans;letter-spacing:0px;word-spacing:0px;fill:#000000;fill-opacity:1;stroke:none;stroke-width:1px;stroke-linecap:butt;stroke-linejoin:miter;stroke-opacity:1"
       xml:space="preserve"><tspan
         style="font-size:11.25px"
         y="421.45145"
         x="245.8842"
         id="G3A"
         sodipodi:role="line">G3A</tspan></text>
    <text
       xml:space="preserve"
       style="font-style:normal;font-weight:normal;font-size:40px;line-height:125%;font-family:Sans;letter-spacing:0px;word-spacing:0px;fill:#000000;fill-opacity:1;stroke:none;stroke-width:1px;stroke-linecap:butt;stroke-linejoin:miter;stroke-opacity:1"
       x="245.8842"
       y="440.64435"
       id="text3439"
       sodipodi:linespacing="125%"><tspan
         sodipodi:role="line"
         id="G3B"
         x="245.8842"
         y="440.64435"
         style="font-size:11.25px">G3B</tspan></text>
    <text
       sodipodi:linespacing="125%"
       id="text3443"
       y="460.34232"
       x="245.8842"
       style="font-style:normal;font-weight:normal;font-size:40px;line-height:125%;font-family:Sans;letter-spacing:0px;word-spacing:0px;fill:#000000;fill-opacity:1;stroke:none;stroke-width:1px;stroke-linecap:butt;stroke-linejoin:miter;stroke-opacity:1"
       xml:space="preserve"><tspan
         style="font-size:11.25px"
         y="460.34232"
         x="245.8842"
         id="G3C"
         sodipodi:role="line">G3C</tspan></text>
    <text
       xml:space="preserve"
       style="font-style:normal;font-weight:normal;font-size:40px;line-height:125%;font-family:Sans;letter-spacing:0px;word-spacing:0px;fill:#000000;fill-opacity:1;stroke:none;stroke-width:1px;stroke-linecap:butt;stroke-linejoin:miter;stroke-opacity:1"
       x="317.31277"
       y="421.45145"
       id="text3447"
       sodipodi:linespacing="125%"><tspan
         sodipodi:role="line"
         id="G4A"
         x="317.31277"
         y="421.45145"
         style="font-size:11.25px">G4A</tspan></text>
    <text
       sodipodi:linespacing="125%"
       id="text3451"
       y="440.64435"
       x="317.31277"
       style="font-style:normal;font-weight:normal;font-size:40px;line-height:125%;font-family:Sans;letter-spacing:0px;word-spacing:0px;fill:#000000;fill-opacity:1;stroke:none;stroke-width:1px;stroke-linecap:butt;stroke-linejoin:miter;stroke-opacity:1"
       xml:space="preserve"><tspan
         style="font-size:11.25px"
         y="440.64435"
         x="317.31277"
         id="G4B"
         sodipodi:role="line">G4B</tspan></text>
    <text
       xml:space="preserve"
       style="font-style:normal;font-weight:normal;font-size:40px;line-height:125%;font-family:Sans;letter-spacing:0px;word-spacing:0px;fill:#000000;fill-opacity:1;stroke:none;stroke-width:1px;stroke-linecap:butt;stroke-linejoin:miter;stroke-opacity:1"
       x="317.31277"
       y="460.34232"
       id="text3455"
       sodipodi:linespacing="125%"><tspan
         sodipodi:role="line"
         id="G4C"
         x="317.31277"
         y="460.34232"
         style="font-size:11.25px">G4C</tspan></text>
    <text
       sodipodi:linespacing="125%"
       id="text3459"
       y="421.45145"
       x="390.16992"
       style="font-style:normal;font-weight:normal;font-size:40px;line-height:125%;font-family:Sans;letter-spacing:0px;word-spacing:0px;fill:#000000;fill-opacity:1;stroke:none;stroke-width:1px;stroke-linecap:butt;stroke-linejoin:miter;stroke-opacity:1"
       xml:space="preserve"><tspan
         style="font-size:11.25px"
         y="421.45145"
         x="390.16992"
         id="G5A"
         sodipodi:role="line">G5A</tspan></text>
    <text
       xml:space="preserve"
       style="font-style:normal;font-weight:normal;font-size:40px;line-height:125%;font-family:Sans;letter-spacing:0px;word-spacing:0px;fill:#000000;fill-opacity:1;stroke:none;stroke-width:1px;stroke-linecap:butt;stroke-linejoin:miter;stroke-opacity:1"
       x="390.16992"
       y="440.64435"
       id="text3463"
       sodipodi:linespacing="125%"><tspan
         sodipodi:role="line"
         id="G5B"
         x="390.16992"
         y="440.64435"
         style="font-size:11.25px">G5B</tspan></text>
    <text
       sodipodi:linespacing="125%"
       id="text3467"
       y="460.34232"
       x="390.16992"
       style="font-style:normal;font-weight:normal;font-size:40px;line-height:125%;font-family:Sans;letter-spacing:0px;word-spacing:0px;fill:#000000;fill-opacity:1;stroke:none;stroke-width:1px;stroke-linecap:butt;stroke-linejoin:miter;stroke-opacity:1"
       xml:space="preserve"><tspan
         style="font-size:11.25px"
         y="460.34232"
         x="390.16992"
         id="G5C"
         sodipodi:role="line">G5C</tspan></text>
    <text
       xml:space="preserve"
       style="font-style:normal;font-weight:normal;font-size:40px;line-height:125%;font-family:Sans;letter-spacing:0px;word-spacing:0px;fill:#000000;fill-opacity:1;stroke:none;stroke-width:1px;stroke-linecap:butt;stroke-linejoin:miter;stroke-opacity:1"
       x="460.16992"
       y="421.45145"
       id="text3471"
       sodipodi:linespacing="125%"><tspan
         sodipodi:role="line"
         id="G6A"
         x="460.16992"
         y="421.45145"
         style="font-size:11.25px">G6A</tspan></text>
    <text
       sodipodi:linespacing="125%"
       id="text3475"
       y="440.64435"
       x="460.16992"
       style="font-style:normal;font-weight:normal;font-size:40px;line-height:125%;font-family:Sans;letter-spacing:0px;word-spacing:0px;fill:#000000;fill-opacity:1;stroke:none;stroke-width:1px;stroke-linecap:butt;stroke-linejoin:miter;stroke-opacity:1"
       xml:space="preserve"><tspan
         style="font-size:11.25px"
         y="440.64435"
         x="460.16992"
         id="G6B"
         sodipodi:role="line">G6B</tspan></text>
    <text
       xml:space="preserve"
       style="font-style:normal;font-weight:normal;font-size:40px;line-height:125%;font-family:Sans;letter-spacing:0px;word-spacing:0px;fill:#000000;fill-opacity:1;stroke:none;stroke-width:1px;stroke-linecap:butt;stroke-linejoin:miter;stroke-opacity:1"
       x="460.16992"
       y="460.34232"
       id="text3479"
       sodipodi:linespacing="125%"><tspan
         sodipodi:role="line"
         id="G6C"
         x="460.16992"
         y="460.34232"
         style="font-size:11.25px">G6C</tspan></text>
  </g>
</svg>
